HIERARCHY
ROOT Hips
{
  OFFSET 0.000000 0.000000 0.000000
  CHANNELS 6 Xposition Yposition Zposition Zrotation Xrotation Yrotation
  JOINT RightUpLeg
  {
    OFFSET -5.909942 -9.076447 1.433727
    CHANNELS 3 Zrotation Xrotation Yrotation
    JOINT RightLeg
    {
      OFFSET -8.568864 -21.142736 32.600246
      CHANNELS 3 Zrotation Xrotation Yrotation
      JOINT RightFoot
      {
        OFFSET 1.226634 -38.546829 -19.022003
        CHANNELS 3 Zrotation Xrotation Yrotation
        JOINT RightToeBase
        {
          OFFSET -6.848311 -7.431079 11.134232
          CHANNELS 3 Zrotation Xrotation Yrotation
          End Site
          {
            OFFSET 0.000000 4.000000 0.000000
          }
        }
      }
    }
  }
  JOINT LeftUpLeg
  {
    OFFSET 5.767147 -8.255487 -1.003340
    CHANNELS 3 Zrotation Xrotation Yrotation
    JOINT LeftLeg
    {
      OFFSET 18.799402 -23.832699 27.982040
      CHANNELS 3 Zrotation Xrotation Yrotation
      JOINT LeftFoot
      {
        OFFSET -4.286745 -32.807285 -26.066048
        CHANNELS 3 Zrotation Xrotation Yrotation
        JOINT LeftToeBase
        {
          OFFSET 8.084914 -8.068116 7.432722
          CHANNELS 3 Zrotation Xrotation Yrotation
          End Site
          {
            OFFSET 0.000000 4.000000 0.000000
          }
        }
      }
    }
  }
  JOINT Spine
  {
    OFFSET -1.416535 11.791885 -5.029039
    CHANNELS 3 Zrotation Xrotation Yrotation
    JOINT Spine1
    {
      OFFSET 1.151610 8.293086 10.120005
      CHANNELS 3 Zrotation Xrotation Yrotation
      JOINT Spine2
      {
        OFFSET 0.689094 3.291970 4.262249
        CHANNELS 3 Zrotation Xrotation Yrotation
        JOINT Neck
        {
          OFFSET 1.177938 18.414043 10.966823
          CHANNELS 3 Zrotation Xrotation Yrotation
          JOINT Head
          {
            OFFSET 0.720636 4.072571 8.673581
            CHANNELS 3 Zrotation Xrotation Yrotation
            End Site
            {
              OFFSET 0.000000 4.000000 0.000000
            }
          }
        }
        JOINT RightShoulder
        {
          OFFSET -6.478049 9.945226 7.012753
          CHANNELS 3 Zrotation Xrotation Yrotation
          JOINT RightArm
          {
            OFFSET -9.178507 -1.750588 6.899093
            CHANNELS 3 Zrotation Xrotation Yrotation
            JOINT RightForeArm
            {
              OFFSET -7.204366 -25.377773 0.951800
              CHANNELS 3 Zrotation Xrotation Yrotation
              JOINT RightHand
              {
                OFFSET 20.428905 -3.788328 15.003475
                CHANNELS 3 Zrotation Xrotation Yrotation
                End Site
                {
                  OFFSET 0.000000 4.000000 0.000000
                }
              }
            }
          }
        }
        JOINT LeftShoulder
        {
          OFFSET 7.084739 10.494864 3.348273
          CHANNELS 3 Zrotation Xrotation Yrotation
          JOINT LeftArm
          {
            OFFSET 12.883471 0.241089 0.315504
            CHANNELS 3 Zrotation Xrotation Yrotation
            JOINT LeftForeArm
            {
              OFFSET 8.271703 -21.203386 -11.383984
              CHANNELS 3 Zrotation Xrotation Yrotation
              JOINT LeftHand
              {
                OFFSET -1.295251 -3.158051 20.572857
                CHANNELS 3 Zrotation Xrotation Yrotation
                End Site
                {
                  OFFSET 0.000000 4.000000 0.000000
                }
              }
            }
          }
        }
      }
    }
  }
}
MOTION
Frames: 8
Frame Time: 0.050000
0.000000 0.000000 0.000000 -0.000000 0.000000 0.000000 -0.000000 0.000000 0.000000 -0.000000 0.000000 0.000000 -0.000000 0.000000 0.000000 -0.000000 0.000000 0.000000 -0.000000 0.000000 0.000000 -0.000000 0.000000 0.000000 -0.000000 0.000000 0.000000 -0.000000 0.000000 0.000000 -0.000000 0.000000 0.000000 -0.000000 0.000000 0.000000 -0.000000 0.000000 0.000000 -0.000000 0.000000 0.000000 -0.000000 0.000000 0.000000 -0.000000 0.000000 0.000000 -0.000000 0.000000 0.000000 -0.000000 0.000000 0.000000 -0.000000 0.000000 0.000000 -0.000000 0.000000 0.000000 -0.000000 0.000000 0.000000 -0.000000 0.000000 0.000000 -0.000000 0.000000 0.000000
-0.307179 3.086036 2.044222 0.039030 0.832202 0.116691 1.562157 3.576821 0.557994 -2.325866 -2.639315 -0.421081 2.237698 0.128681 0.223976 -1.558455 -1.870103 -0.614339 -0.868734 0.573432 0.015326 3.467168 -7.908248 -1.217459 -1.257121 2.360496 -1.333129 -1.625065 4.039887 2.737462 -0.510338 -5.783090 1.171167 0.015746 -0.055063 0.398653 -0.410320 0.079402 -0.850343 -0.487159 -1.446953 3.623299 1.820871 6.270137 -4.566177 -1.999866 3.254930 -2.736918 0.908648 4.309192 1.323914 -0.999662 -0.381155 1.521849 2.810545 -2.232520 -0.704909 0.666576 4.880375 1.810029 -3.248002 -3.018712 -2.201078 2.458281 -3.603326 -2.688903 0.621923 6.822804 1.989805
-0.168901 5.944949 3.880127 0.008187 1.375811 0.169541 2.820456 7.447424 0.517026 -3.808398 -7.504173 -0.714299 3.334635 0.561100 1.608230 -2.517053 -1.764406 -2.093654 -1.919255 2.401771 0.610657 5.007975 -12.521873 -1.744571 -2.447956 4.556006 -1.532590 -1.084152 4.023383 3.206037 -0.911644 -9.229859 2.093573 0.197342 -0.422335 0.478198 -0.974382 0.464822 -1.213501 0.209491 -2.481514 4.274220 2.446398 10.131701 -6.091546 -3.456363 4.973361 -4.892732 1.794150 7.251407 2.675756 -4.705613 1.321900 0.954436 7.676719 -5.531457 0.623342 0.057276 7.737317 3.237708 -5.505944 -6.556134 -4.206941 4.846254 -3.794616 -5.652805 0.951675 10.933058 4.314813
0.303143 9.683842 5.758169 -0.054441 2.092784 0.231018 4.018377 12.783519 -0.717143 -5.148342 -15.039328 -0.133707 4.879210 2.812658 2.515772 -3.806777 -2.498655 -3.277477 -3.184229 4.846430 1.663624 7.074217 -17.404063 -2.898130 -5.507986 7.713951 -0.600064 0.886117 2.416280 3.256496 -1.213072 -14.261400 3.197417 0.069869 -0.167258 1.046278 -1.748746 0.781695 -1.796915 1.433740 -4.388316 4.997587 3.523967 15.679502 -8.359744 -4.724231 7.464746 -7.112667 2.811582 9.937539 4.115939 -10.249677 4.976984 1.603491 14.480727 -10.331734 1.520737 -0.783119 11.460832 4.551622 -9.353370 -10.517418 -5.905514 9.807879 0.421445 -9.216371 1.057416 11.245673 6.073899
1.301810 14.542848 7.638721 -0.311318 2.198564 0.138522 5.903017 21.002698 -2.921937 -7.360079 -27.500317 0.800908 7.100081 6.944972 2.967817 -4.851914 -2.603915 -4.642282 -5.763285 9.821260 3.137642 10.929958 -22.545791 -3.878312 -10.615545 10.422854 1.280430 4.494918 -0.712455 3.307103 -0.291925 -20.961533 3.852822 -0.204911 -0.842740 2.378564 -1.995945 2.353071 -2.831127 1.896473 -4.787916 5.908231 4.590514 21.720466 -10.355709 -7.491913 12.146403 -9.090778 5.911707 11.232626 6.810677 -18.110564 10.207800 3.913938 21.415951 -15.544214 1.731797 -3.310631 17.201318 5.762108 -12.746476 -16.753385 -8.368817 15.026934 11.353953 -13.637927 1.316658 7.209076 9.439826
2.796740 18.771904 9.612957 -1.614747 1.578423 -0.480471 8.039667 29.344657 -6.729492 -6.521713 -39.921141 4.189479 8.987994 12.602999 1.905675 -5.786364 -4.039179 -4.688565 -8.136021 15.831444 5.543693 16.138946 -28.063514 -4.251807 -16.870719 11.539930 2.168244 8.585761 -2.533793 5.085384 2.526710 -26.105018 4.436730 -0.107962 -3.289737 3.673001 -2.274771 4.729237 -3.346188 1.772281 -4.257244 7.227159 5.774540 26.998680 -12.309020 -11.294868 17.473599 -11.315174 8.842269 12.822442 10.868208 -19.623255 10.701640 4.586892 21.894515 -16.132344 1.286113 -5.536128 23.129803 6.558083 -15.430416 -21.719273 -10.120409 20.285155 25.889633 -19.191139 2.220738 -2.011142 13.791156
4.520317 20.919788 11.620059 -2.733593 0.749484 -1.064122 9.519132 36.148614 -11.776469 -2.001849 -51.806822 10.876042 10.348389 18.586888 -0.568500 -5.423911 -4.802605 -3.552417 -10.825360 21.855812 8.895675 19.794674 -33.023411 -4.191324 -23.531870 14.943962 4.414229 14.185713 -7.382558 5.609300 5.163315 -30.608145 5.131486 0.494712 -5.634570 4.096231 -2.674471 7.926122 -3.293011 1.925860 -5.680971 7.178595 5.967475 33.111450 -12.587922 -13.958122 22.772062 -14.418449 10.882303 15.548711 15.455038 -13.937018 3.704376 -0.764563 14.807430 -9.797239 3.570729 -5.979446 27.766684 6.673824 -17.005919 -26.169797 -12.844941 21.577809 36.843065 -21.739496 3.248152 -7.790456 17.043563
6.444544 19.224274 13.408464 -4.186618 1.697340 -1.536723 10.403565 35.707077 -11.803845 -3.190115 -52.437743 11.369556 9.576641 17.314643 -3.715567 -2.720979 -3.877533 -0.554732 -12.270391 25.598257 13.404245 23.059169 -38.170640 -5.946556 -19.087731 6.428522 1.463543 8.187312 0.366570 7.378166 8.340405 -36.612502 6.170460 0.801846 -4.894946 4.048329 -3.108859 8.626913 -2.862172 1.840880 -4.427155 7.229799 6.110147 35.680589 -12.786619 -16.181320 27.687521 -18.234427 14.592062 17.422676 20.687467 -8.800020 -3.529821 -3.553722 5.438592 -2.825859 4.760027 -6.842878 31.534291 7.272783 -16.249545 -27.338700 -13.781174 19.602628 36.273404 -18.425250 2.711753 -5.928133 15.158584
